<svg xmlns="http://www.w3.org/2000/svg" width="21" height="23" fill="none" viewBox="0 0 21 23">
  <defs/>
  <path fill="#A9A9A9" fill-rule="evenodd" d="M16.4 3.02h2.85c.97 0 1.75.83 1.75 1.84v16.3A1.8 1.8 0 0119.25 23H1.75A1.8 1.8 0 010 21.16V4.86a1.8 1.8 0 011.75-1.84h2.84V1.65c0-.38.3-.7.66-.7.36 0 .66.32.66.7v1.37h3.93V1.65c0-.38.3-.7.66-.7.36 0 .66.32.66.7v1.37h3.93V1.65c0-.38.3-.7.66-.7.36 0 .66.32.66.7v1.37zm3.16 18.46c.09-.08.13-.2.13-.32V4.86c0-.25-.2-.46-.44-.46h-2.84v1.38c0 .38-.3.69-.66.69a.67.67 0 01-.65-.69V4.4h-3.94v1.38c0 .38-.3.69-.66.69a.67.67 0 01-.65-.69V4.4H5.9v1.38c0 .38-.3.69-.66.69a.67.67 0 01-.66-.69V4.4H1.75a.45.45 0 00-.44.46v16.3c0 .25.2.46.44.46h17.5c.12 0 .23-.05.31-.14z" clip-rule="evenodd"/>
  <path fill="#A9A9A9" fill-rule="evenodd" d="M4.6 9.23h2.62v2.06H4.59V9.23zm0 3.44h2.62v2.07H4.59v-2.07zm2.62 3.44H4.59v2.07h2.63V16.1zm1.97 0h2.62v2.07H9.2V16.1zm2.62-3.44H9.2v2.07h2.62v-2.07zM9.2 9.23h2.62v2.06H9.2V9.23zm7.22 6.88h-2.63v2.07h2.63V16.1zm-2.63-3.44h2.63v2.07h-2.63v-2.07zm2.63-3.44h-2.63v2.06h2.63V9.23z" clip-rule="evenodd"/>
</svg>
